<?xml version="1.0" standalone="no"?>
<!DOCTYPE svg PUBLIC "-//W3C//DTD SVG 20010904//EN"
 "http://www.w3.org/TR/2001/REC-SVG-20010904/DTD/svg10.dtd">
<svg version="1.0" xmlns="http://www.w3.org/2000/svg"
 width="32.000000pt" height="32.000000pt" viewBox="0 0 32.000000 32.000000"
 preserveAspectRatio="xMidYMid meet">

<g transform="translate(0.000000,32.000000) scale(0.100000,-0.100000)"
fill="#000000" stroke="none">
<path d="M86 238 c4 -7 18 -27 31 -44 17 -23 23 -44 23 -82 0 -45 3 -52 20
-52 17 0 20 7 20 48 0 26 6 56 13 67 50 73 51 75 29 75 -12 0 -28 -13 -40 -32
l-21 -32 -18 32 c-12 21 -26 32 -41 32 -16 0 -21 -4 -16 -12z"/>
<path d="M0 144 c0 -76 2 -85 18 -82 12 2 18 15 20 48 l3 44 30 -47 c39 -62
59 -62 59 1 -1 60 -39 117 -41 60 0 -22 -1 -22 -12 -4 -18 30 -55 66 -67 66
-6 0 -10 -33 -10 -86z"/>
<path d="M278 173 c-14 -4 -18 -15 -18 -59 0 -30 5 -54 10 -54 6 0 10 12 10
26 0 14 4 23 10 19 6 -3 10 -15 10 -26 0 -10 4 -19 10 -19 12 0 8 113 -5 115
-5 2 -18 1 -27 -2z m22 -33 c0 -5 -4 -10 -10 -10 -5 0 -10 5 -10 10 0 6 5 10
10 10 6 0 10 -4 10 -10z"/>
<path d="M208 149 c-12 -7 -18 -22 -18 -49 0 -38 2 -40 30 -40 17 0 30 5 30
10 0 6 -7 10 -15 10 -18 0 -20 16 -2 23 9 4 9 8 -2 15 -9 7 -10 12 -2 16 12 8
15 26 4 26 -5 0 -16 -5 -25 -11z"/>
</g>
</svg>
