<?xml version="1.0" standalone="no"?>
<!DOCTYPE svg PUBLIC "-//W3C//DTD SVG 20010904//EN"
 "http://www.w3.org/TR/2001/REC-SVG-20010904/DTD/svg10.dtd">
<svg version="1.0" xmlns="http://www.w3.org/2000/svg"
 width="36.000000pt" height="36.000000pt" viewBox="0 0 36.000000 36.000000"
 preserveAspectRatio="xMidYMid meet">

<g transform="translate(0.000000,36.000000) scale(0.100000,-0.100000)"
fill="#000000" stroke="none">
<path d="M0 180 l0 -180 180 0 180 0 0 180 0 180 -180 0 -180 0 0 -180z m106
15 l21 -58 23 62 c12 33 26 61 30 61 4 0 18 -28 31 -62 l23 -61 18 53 c18 55
33 78 43 68 8 -8 -50 -159 -61 -160 -5 0 -17 23 -28 51 -10 28 -22 51 -26 51
-4 0 -16 -24 -26 -52 -11 -29 -23 -53 -28 -53 -4 0 -18 27 -31 60 -37 99 -39
108 -24 103 8 -3 23 -31 35 -63z"/>
</g>
</svg>
