<?xml version="1.0" standalone="no"?>
<!DOCTYPE svg PUBLIC "-//W3C//DTD SVG 20010904//EN"
 "http://www.w3.org/TR/2001/REC-SVG-20010904/DTD/svg10.dtd">
<svg version="1.0" xmlns="http://www.w3.org/2000/svg"
 width="16.000000pt" height="16.000000pt" viewBox="0 0 16.000000 16.000000"
 preserveAspectRatio="xMidYMid meet">

<g transform="translate(0.000000,16.000000) scale(0.100000,-0.100000)"
fill="#000000" stroke="none">
<path d="M30 115 c0 -23 3 -25 50 -25 47 0 50 2 50 25 0 18 -5 25 -19 25 -11
0 -22 -6 -25 -12 -5 -10 -7 -10 -12 0 -3 6 -14 12 -25 12 -14 0 -19 -7 -19
-25z"/>
<path d="M30 61 c0 -24 59 -36 88 -18 25 17 11 27 -38 27 -27 0 -50 -4 -50 -9z"/>
</g>
</svg>
