<?xml version="1.0" standalone="no"?>
<!DOCTYPE svg PUBLIC "-//W3C//DTD SVG 20010904//EN"
 "http://www.w3.org/TR/2001/REC-SVG-20010904/DTD/svg10.dtd">
<svg version="1.0" xmlns="http://www.w3.org/2000/svg"
 width="48.000000pt" height="48.000000pt" viewBox="0 0 48.000000 48.000000"
 preserveAspectRatio="xMidYMid meet">

<g transform="translate(0.000000,48.000000) scale(0.100000,-0.100000)"
fill="#000000" stroke="none">
<path d="M160 467 c-49 -16 -133 -102 -148 -153 -28 -94 -8 -169 63 -239 101
-102 229 -102 330 0 102 101 102 229 0 330 -70 71 -152 91 -245 62z m102 -232
c74 -94 91 -125 68 -125 -5 0 -40 39 -77 86 l-68 87 -5 -69 c-4 -52 -9 -69
-20 -69 -12 0 -16 17 -18 84 -2 46 0 91 3 98 11 29 42 5 117 -92z m74 90 c8
-21 -4 -67 -16 -60 -13 8 -13 75 0 75 6 0 13 -7 16 -15z"/>
</g>
</svg>
